<?xml version="1.0" standalone="no"?>
<!DOCTYPE svg PUBLIC "-//W3C//DTD SVG 20010904//EN"
 "http://www.w3.org/TR/2001/REC-SVG-20010904/DTD/svg10.dtd">
<svg version="1.0" xmlns="http://www.w3.org/2000/svg"
 width="96.000000pt" height="96.000000pt" viewBox="0 0 96.000000 96.000000"
 preserveAspectRatio="xMidYMid meet">
<metadata>
Created by potrace 1.14, written by Peter Selinger 2001-2017
</metadata>
<g transform="translate(0.000000,96.000000) scale(0.100000,-0.100000)"
fill="#000000" stroke="none">
<path d="M399 848 c-5 -18 -6 -38 -1 -34 7 8 12 36 6 36 -2 0 -4 -1 -5 -2z"/>
<path d="M352 827 c-8 -10 -6 -13 7 -13 11 0 17 6 14 13 -3 7 -6 13 -8 13 -1
0 -7 -6 -13 -13z"/>
<path d="M293 805 c0 -7 8 -10 19 -7 10 2 18 6 18 7 0 1 -8 5 -18 7 -11 3 -19
0 -19 -7z"/>
<path d="M432 805 c3 -3 16 -8 28 -10 12 -2 20 -1 16 2 -4 4 -16 8 -28 10 -12
2 -19 1 -16 -2z"/>
<path d="M236 774 c-8 -20 -8 -24 2 -24 4 0 8 9 9 20 2 24 -3 26 -11 4z"/>
<path d="M305 780 c-3 -6 1 -7 9 -4 18 7 21 14 7 14 -6 0 -13 -4 -16 -10z"/>
<path d="M346 782 c6 -4 10 -20 9 -35 -1 -15 1 -30 5 -32 4 -2 6 8 5 23 -1 15
2 32 6 37 5 7 0 11 -14 12 -12 1 -17 -1 -11 -5z"/>
<path d="M404 779 c-3 -6 0 -17 8 -25 13 -13 15 -13 15 0 0 8 -5 12 -10 9 -6
-4 -8 0 -4 10 7 19 2 23 -9 6z"/>
<path d="M199 748 c-8 -17 -5 -58 3 -58 6 0 8 3 5 7 -4 3 1 16 10 27 17 20 17
20 -1 6 -18 -14 -19 -13 -13 3 3 9 4 17 2 17 -3 0 -6 -1 -6 -2z"/>
<path d="M278 731 c5 -14 4 -14 -14 -1 -18 14 -18 14 -3 -5 9 -11 15 -32 14
-47 -1 -15 1 -25 5 -23 4 2 6 17 5 32 -1 15 2 35 6 44 5 10 3 16 -6 16 -8 0
-11 -7 -7 -16z"/>
<path d="M313 733 c0 -9 4 -10 14 -2 16 14 16 16 0 16 -8 0 -14 -6 -14 -14z"/>
<path d="M459 728 c15 -21 31 -23 31 -6 0 6 -3 8 -7 5 -3 -4 -13 -1 -22 6 -14
11 -14 10 -2 -5z"/>
<path d="M427 699 c7 -7 15 -10 18 -7 3 3 -2 9 -12 12 -14 6 -15 5 -6 -5z"/>
<path d="M546 696 c5 -12 4 -17 -3 -13 -5 3 -10 -1 -10 -9 0 -13 2 -13 16 0
12 13 13 18 2 28 -10 11 -11 9 -5 -6z"/>
<path d="M380 691 c0 -5 -13 -7 -30 -6 -16 1 -27 -1 -25 -5 3 -5 13 -7 23 -5
9 1 22 -1 27 -6 7 -5 11 0 12 12 1 10 0 19 -3 19 -2 0 -4 -4 -4 -9z"/>
<path d="M240 680 c-9 -6 -10 -10 -3 -10 6 0 15 5 18 10 8 12 4 12 -15 0z"/>
<path d="M192 667 c-8 -10 -6 -13 7 -13 11 0 17 6 14 13 -3 7 -6 13 -8 13 -1
0 -7 -6 -13 -13z"/>
<path d="M110 666 c0 -2 7 -7 16 -10 8 -3 12 -2 9 4 -6 10 -25 14 -25 6z"/>
<path d="M425 660 c-3 -6 1 -7 9 -4 18 7 21 14 7 14 -6 0 -13 -4 -16 -10z"/>
<path d="M468 663 c7 -3 16 -2 19 1 4 3 -2 6 -13 5 -11 0 -14 -3 -6 -6z"/>
<path d="M154 646 c1 -8 5 -18 8 -22 4 -3 5 1 4 10 -1 8 -5 18 -8 22 -4 3 -5
-1 -4 -10z"/>
<path d="M238 653 c7 -3 16 -2 19 1 4 3 -2 6 -13 5 -11 0 -14 -3 -6 -6z"/>
<path d="M395 650 c-3 -5 -19 -10 -34 -10 -16 0 -34 -7 -41 -15 -7 -8 -16 -12
-21 -9 -5 3 -9 2 -7 -3 5 -21 -14 -73 -25 -66 -9 5 -9 3 -1 -8 9 -13 13 -30
17 -81 1 -9 6 -14 11 -11 5 4 7 -1 3 -10 -3 -9 -3 -16 1 -15 4 1 19 -5 34 -12
23 -11 26 -16 16 -29 -8 -10 -4 -9 10 3 16 14 22 15 22 6 0 -9 5 -7 15 6 12
15 16 16 24 5 6 -9 8 -3 8 21 -1 31 -4 34 -27 33 -31 -2 -63 13 -55 26 4 5 2
9 -4 9 -11 0 -9 19 3 39 6 9 5 12 -2 8 -16 -11 -2 30 16 45 13 11 14 11 7 -2
-8 -13 -7 -13 8 -1 15 12 21 9 18 -11 -2 -17 9 -6 23 21 9 16 12 31 9 35 -4 3
-2 6 3 6 6 0 15 -5 21 -11 8 -8 13 -8 18 0 4 7 1 10 -7 9 -7 -2 -12 3 -10 10
2 10 -2 10 -17 2 -27 -14 -34 -13 -27 5 6 17 0 20 -9 5z"/>
<path d="M479 627 c-14 -17 -28 -40 -32 -50 -4 -11 -12 -15 -18 -11 -8 5 -9 3
-3 -7 7 -12 11 -38 17 -106 1 -12 7 -21 12 -20 6 1 9 -4 7 -11 -1 -8 2 -11 7
-8 5 4 13 0 18 -8 6 -12 17 -13 55 -5 52 12 69 37 73 114 1 23 6 49 10 56 5 8
5 11 0 7 -4 -4 -14 0 -21 10 -16 20 -18 36 -4 27 6 -4 7 1 3 11 -4 11 -8 13
-11 6 -3 -9 -10 -9 -30 1 -15 8 -35 12 -46 9 -11 -2 -16 0 -12 7 14 22 0 10
-25 -22z m77 -94 c4 -48 -21 -92 -41 -72 -17 18 -28 69 -16 69 6 0 8 7 4 16
-8 20 26 49 40 35 5 -5 11 -27 13 -48z"/>
<path d="M533 515 c0 -8 4 -12 9 -9 5 3 6 10 3 15 -9 13 -12 11 -12 -6z"/>
<path d="M520 480 c-9 -6 -10 -10 -3 -10 6 0 15 5 18 10 8 12 4 12 -15 0z"/>
<path d="M188 623 c6 -3 10 -9 6 -14 -8 -14 2 -11 14 4 8 10 6 13 -11 14 -12
0 -16 -1 -9 -4z"/>
<path d="M244 619 c-3 -6 0 -17 8 -25 13 -13 15 -13 15 0 0 8 -5 12 -10 9 -6
-4 -8 0 -4 10 7 19 2 23 -9 6z"/>
<path d="M635 609 c-4 -6 -5 -12 -2 -15 2 -3 7 2 10 11 7 17 1 20 -8 4z"/>
<path d="M780 605 c6 -8 9 -19 5 -24 -4 -7 0 -8 10 -5 14 6 14 8 -1 25 -20 22
-32 26 -14 4z"/>
<path d="M110 600 c0 -5 5 -10 11 -10 5 0 7 5 4 10 -3 6 -8 10 -11 10 -2 0 -4
-4 -4 -10z"/>
<path d="M156 578 c3 -5 10 -6 15 -3 13 9 11 12 -6 12 -8 0 -12 -4 -9 -9z"/>
<path d="M194 565 c0 -28 8 -24 13 5 2 11 -1 20 -5 20 -4 0 -8 -11 -8 -25z"/>
<path d="M710 579 c6 -8 5 -20 -2 -33 -10 -20 -10 -20 8 -3 17 16 17 18 1 32
-9 8 -13 10 -7 4z"/>
<path d="M157 528 c16 -19 65 -17 71 2 2 9 0 11 -5 5 -10 -13 -43 -13 -63 0
-12 7 -13 6 -3 -7z"/>
<path d="M239 523 c0 -5 -2 -16 -4 -26 -2 -11 -1 -16 3 -13 8 8 14 46 7 46 -3
0 -5 -3 -6 -7z"/>
<path d="M634 499 c-2 -35 5 -33 12 5 2 14 1 26 -3 26 -5 0 -9 -14 -9 -31z"/>
<path d="M779 513 c-13 -16 -12 -17 4 -4 16 13 21 21 13 21 -2 0 -10 -8 -17
-17z"/>
<path d="M355 511 c-3 -5 -2 -12 3 -15 5 -3 9 1 9 9 0 17 -3 19 -12 6z"/>
<path d="M678 503 c7 -3 16 -2 19 1 4 3 -2 6 -13 5 -11 0 -14 -3 -6 -6z"/>
<path d="M388 493 c7 -3 16 -2 19 1 4 3 -2 6 -13 5 -11 0 -14 -3 -6 -6z"/>
<path d="M650 466 c-6 -12 -12 -28 -13 -36 -2 -8 -6 -20 -9 -26 -4 -6 -1 -11
7 -11 7 0 12 8 10 19 -3 12 2 18 15 18 10 0 20 5 22 12 3 8 6 7 10 -3 4 -10
-7 -30 -26 -52 -29 -33 -46 -74 -24 -61 4 3 8 1 8 -3 0 -5 21 -8 48 -7 26 1
54 -4 62 -10 12 -8 11 -6 -1 9 -16 20 -15 50 1 40 5 -3 7 3 6 12 -2 9 -8 18
-15 19 -6 1 -7 0 -2 -2 20 -10 -10 -41 -35 -36 -25 5 -22 32 4 32 8 0 13 3 9
6 -3 3 -2 17 3 30 21 54 -53 100 -80 50z"/>
<path d="M753 464 c3 -3 2 -16 -3 -28 -6 -17 -4 -22 11 -22 12 0 15 4 8 12 -5
6 -7 19 -3 28 4 10 1 16 -7 16 -7 0 -10 -3 -6 -6z"/>
<path d="M250 445 c-10 -13 -11 -18 -1 -28 10 -9 11 -8 5 7 -5 12 -4 17 3 13
5 -3 10 0 10 8 0 19 -2 19 -17 0z"/>
<path d="M615 449 c-4 -6 -5 -12 -2 -15 2 -3 7 2 10 11 7 17 1 20 -8 4z"/>
<path d="M215 440 c3 -5 8 -10 11 -10 2 0 4 5 4 10 0 6 -5 10 -11 10 -5 0 -7
-4 -4 -10z"/>
<path d="M290 398 c0 -4 4 -8 9 -8 6 0 12 4 15 8 3 5 -1 9 -9 9 -8 0 -15 -4
-15 -9z"/>
<path d="M550 376 c13 -18 13 -19 -1 -14 -9 4 -16 1 -16 -8 0 -7 5 -10 11 -7
5 4 26 7 45 8 21 0 36 6 39 15 2 9 0 11 -5 5 -12 -15 -47 -12 -69 5 -18 14
-18 14 -4 -4z"/>
<path d="M355 359 c-3 -4 2 -6 10 -5 21 3 28 13 10 13 -9 0 -18 -4 -20 -8z"/>
<path d="M399 363 c0 -5 -2 -16 -4 -26 -2 -11 -1 -16 3 -13 8 8 14 46 7 46 -3
0 -5 -3 -6 -7z"/>
<path d="M425 340 c-3 -6 1 -7 9 -4 18 7 21 14 7 14 -6 0 -13 -4 -16 -10z"/>
<path d="M464 330 c0 -20 21 -20 39 0 9 11 8 11 -7 0 -18 -13 -19 -13 -14 1 3
9 1 16 -6 16 -6 0 -12 -8 -12 -17z"/>
<path d="M553 315 c0 -8 4 -12 9 -9 5 3 6 10 3 15 -9 13 -12 11 -12 -6z"/>
<path d="M666 302 c-3 -5 1 -9 9 -9 8 0 12 4 9 9 -3 4 -7 8 -9 8 -2 0 -6 -4
-9 -8z"/>
<path d="M415 290 c-4 -6 -16 -8 -28 -4 -12 3 -20 5 -17 3 3 -2 15 -13 28 -24
22 -18 23 -18 16 0 -5 11 -4 16 3 12 5 -3 10 0 10 8 0 18 -3 19 -12 5z"/>
<path d="M478 293 c7 -3 16 -2 19 1 4 3 -2 6 -13 5 -11 0 -14 -3 -6 -6z"/>
<path d="M573 278 c0 -13 1 -17 4 -10 3 6 10 9 16 5 7 -4 6 1 -2 10 -17 21
-17 21 -18 -5z"/>
<path d="M732 290 c3 -9 18 -15 41 -15 20 -1 34 2 32 5 -2 4 -17 6 -32 5 -15
-1 -32 3 -36 9 -6 7 -7 6 -5 -4z"/>
<path d="M610 282 c0 -5 7 -9 15 -9 8 0 12 4 9 9 -3 4 -9 8 -15 8 -5 0 -9 -4
-9 -8z"/>
<path d="M510 266 c0 -2 7 -7 16 -10 8 -3 12 -2 9 4 -6 10 -25 14 -25 6z"/>
<path d="M470 238 c0 -6 3 -8 7 -5 3 4 13 1 22 -6 14 -11 14 -10 2 6 -15 20
-31 22 -31 5z"/>
<path d="M595 213 c0 -23 6 -38 15 -41 10 -2 11 -1 4 5 -6 4 -10 21 -9 36 1
15 -1 30 -5 32 -3 2 -6 -12 -5 -32z"/>
<path d="M661 234 c0 -11 3 -14 6 -6 3 7 2 16 -1 19 -3 4 -6 -2 -5 -13z"/>
<path d="M710 238 c0 -6 3 -8 7 -5 3 4 13 1 22 -6 14 -11 14 -10 2 6 -15 20
-31 22 -31 5z"/>
<path d="M426 223 c6 -4 10 -24 8 -43 -2 -19 1 -29 5 -22 13 21 6 65 -9 70
-10 2 -11 1 -4 -5z"/>
<path d="M334 201 c0 -11 5 -17 13 -14 10 4 11 9 2 19 -15 18 -15 18 -15 -5z"/>
<path d="M533 205 c0 -7 6 -11 14 -8 7 3 13 6 13 8 0 2 -6 5 -13 8 -8 3 -14
-1 -14 -8z"/>
<path d="M773 205 c0 -8 7 -11 16 -7 14 5 14 3 2 -11 -7 -9 -11 -17 -8 -17 2
0 10 6 16 14 10 12 8 17 -7 25 -14 7 -19 7 -19 -4z"/>
<path d="M370 202 c0 -4 11 -8 25 -8 28 0 24 8 -5 13 -11 2 -20 -1 -20 -5z"/>
<path d="M630 195 c5 -7 6 -16 2 -21 -4 -5 -3 -5 2 -1 15 12 15 34 0 34 -9 0
-11 -4 -4 -12z"/>
<path d="M690 201 c0 -6 4 -13 10 -16 6 -3 7 1 4 9 -7 18 -14 21 -14 7z"/>
<path d="M479 153 c-12 -16 -12 -17 2 -6 9 7 19 10 22 6 4 -3 7 -1 7 5 0 17
-16 15 -31 -5z"/>
<path d="M644 158 c-3 -4 5 -5 17 -3 30 6 36 14 9 12 -12 -1 -24 -5 -26 -9z"/>
<path d="M730 166 c0 -2 7 -7 16 -10 8 -3 12 -2 9 4 -6 10 -25 14 -25 6z"/>
<path d="M710 136 c7 -7 13 -7 20 0 6 6 3 10 -10 10 -13 0 -16 -4 -10 -10z"/>
</g>
</svg>
